<svg width="140" height="24" viewBox="0 0 140 24" fill="none" xmlns="http://www.w3.org/2000/svg">
<path d="M90.7588 0C100.653 3.84016e-06 106.958 5.24349 106.958 11.8604C106.958 18.4462 100.653 23.7217 90.7588 23.7217C80.8645 23.7217 74.5596 18.4462 74.5596 11.8604C74.5598 5.24349 80.8646 0 90.7588 0ZM123.801 0C133.695 0 140 5.24349 140 11.8604C140 18.4462 133.695 23.7217 123.801 23.7217C113.907 23.7215 107.602 18.4461 107.602 11.8604C107.602 5.24358 113.907 0.000146959 123.801 0ZM7.80273 17.1982H23.0352V23.0967H0V0.624023H7.80273V17.1982ZM33.0742 23.0967H25.209V0.624023H33.0742V23.0967ZM53.9434 11.0176H55.2539L62.3076 0.624023H72.7637V23.0967H65.1797L65.3672 8.86426H64.7109L57.5322 18.7275H51.2588L43.9238 8.86426H43.2061L43.3936 23.0967H36.1836V0.624023H46.7334L53.9434 11.0176ZM90.7588 5.80566C86.1395 5.80566 83.2053 8.27111 83.2051 11.8604C83.2051 15.3561 86.1394 17.916 90.7588 17.916C95.3782 17.916 98.3125 15.3873 98.3125 11.8604C98.3123 8.27111 95.3781 5.80567 90.7588 5.80566ZM123.801 5.80566C119.182 5.80581 116.248 8.27122 116.248 11.8604C116.248 15.356 119.182 17.9159 123.801 17.916C128.42 17.916 131.354 15.3874 131.354 11.8604C131.354 8.27111 128.42 5.80566 123.801 5.80566Z" fill="#469D1A"/>
</svg>
